# xmcd
#
# Track frame offsets:
#	150
#	13803
#	32785
#	43250
#	52525
#	65965
#	79175
#	94660
#	107740
#	121263
#	136335
#	147878
#
# Disc length: 2171 seconds
#
# Revision: 1
# Processed by: cddbd v1.5.2PL0 Copyright (c) Steve Scherf et al.
# Submitted via: EZCDAudioConverter 5.2.0.1
#
DISCID=a308790c
DTITLE=Fleetwood Mac - Fleetwood Mac (Remaster)
DYEAR=1968
DGENRE=Blues
TTITLE0=My Heart Beat Like a Hammer
TTITLE1=Merry Go Round
TTITLE2=Long Grey Mare
TTITLE3=Hellhound on My Trail
TTITLE4=Shake Your Moneymaker
TTITLE5=Looking for Somebody
TTITLE6=No Place to Go
TTITLE7=My Baby's Good to Me
TTITLE8=I Loved Another Woman
TTITLE9=Cold Black Night
TTITLE10=The World Keep on Turning
TTITLE11=Got to Move
EXTD=
EXTT0=
EXTT1=
EXTT2=
EXTT3=
EXTT4=
EXTT5=
EXTT6=
EXTT7=
EXTT8=
EXTT9=
EXTT10=
EXTT11=
PLAYORDER=
